<svg xmlns="http://www.w3.org/2000/svg" width="55.076" height="84.648" viewBox="0 0 55.076 84.648">
  <g id="Group_77" data-name="Group 77" transform="translate(0.547 0.68)">
    <g id="Group_68" data-name="Group 68" transform="translate(0 29.867)">
      <g id="Group_67" data-name="Group 67">
        <path id="Path_87" data-name="Path 87" d="M515.773,581.712a27.1,27.1,0,0,0,53.982,0Z" transform="translate(-515.773 -581.712)" fill="#3f3fa7" stroke="#3f3fa7" stroke-width="1"/>
      </g>
    </g>
    <g id="Group_70" data-name="Group 70" transform="translate(8.272 56.961)">
      <g id="Group_69" data-name="Group 69">
        <path id="Path_88" data-name="Path 88" d="M556.253,615.391l-4.515-23.573a31.705,31.705,0,0,1-4.671,1.869l1.271,5.722H526.815l1.268-5.722a31.682,31.682,0,0,1-4.668-1.869L518.9,615.391a2.467,2.467,0,0,0,1.96,2.89,2.522,2.522,0,0,0,.467.043,2.466,2.466,0,0,0,2.421-2l2.121-10.607h23.413l2.121,10.607a2.466,2.466,0,0,0,2.421,2,2.517,2.517,0,0,0,.466-.043A2.469,2.469,0,0,0,556.253,615.391Z" transform="translate(-518.858 -591.817)" fill="#3f3fa7" stroke="#3f3fa7" stroke-width="1"/>
      </g>
    </g>
    <g id="Group_72" data-name="Group 72" transform="translate(11.327 0)">
      <g id="Group_71" data-name="Group 71">
        <path id="Path_89" data-name="Path 89" d="M526.185,583.32a9.686,9.686,0,0,0,2.472-4.523,7.838,7.838,0,0,0-2.51-7.513,2.468,2.468,0,1,0-3.464,3.515c1.319,1.3,1.287,2.311,1.148,2.957a4.785,4.785,0,0,1-1.185,2.121,9.681,9.681,0,0,0-2.472,4.526,7.845,7.845,0,0,0,2.51,7.513,2.469,2.469,0,1,0,3.464-3.518c-1.319-1.3-1.287-2.311-1.147-2.957A4.785,4.785,0,0,1,526.185,583.32Z" transform="translate(-519.997 -570.573)" fill="#3f3fa7" stroke="#3f3fa7" stroke-width="1"/>
      </g>
    </g>
    <g id="Group_74" data-name="Group 74" transform="translate(22.573 0)">
      <g id="Group_73" data-name="Group 73">
        <path id="Path_90" data-name="Path 90" d="M530.38,583.32a9.687,9.687,0,0,0,2.472-4.523,7.851,7.851,0,0,0-2.51-7.513,2.469,2.469,0,1,0-3.467,3.515c1.322,1.3,1.29,2.311,1.15,2.957a4.813,4.813,0,0,1-1.185,2.121,9.684,9.684,0,0,0-2.472,4.526,7.843,7.843,0,0,0,2.507,7.513,2.47,2.47,0,0,0,3.467-3.518c-1.319-1.3-1.287-2.311-1.148-2.957A4.784,4.784,0,0,1,530.38,583.32Z" transform="translate(-524.192 -570.573)" fill="#3f3fa7" stroke="#3f3fa7" stroke-width="1"/>
      </g>
    </g>
    <g id="Group_76" data-name="Group 76" transform="translate(33.82 0)">
      <g id="Group_75" data-name="Group 75">
        <path id="Path_91" data-name="Path 91" d="M534.576,583.32a9.686,9.686,0,0,0,2.472-4.523,7.851,7.851,0,0,0-2.51-7.513,2.469,2.469,0,1,0-3.467,3.515,3.022,3.022,0,0,1,1.15,2.957,4.785,4.785,0,0,1-1.188,2.121,9.7,9.7,0,0,0-2.472,4.526,7.852,7.852,0,0,0,2.51,7.513,2.47,2.47,0,0,0,3.467-3.518c-1.319-1.3-1.287-2.311-1.148-2.957A4.758,4.758,0,0,1,534.576,583.32Z" transform="translate(-528.387 -570.573)" fill="#3f3fa7" stroke="#3f3fa7" stroke-width="1"/>
      </g>
    </g>
  </g>
</svg>
