<svg id="Group_41" data-name="Group 41" xmlns="http://www.w3.org/2000/svg" width="47.298" height="74.613" viewBox="0 0 47.298 74.613">
  <g id="Group_40" data-name="Group 40">
    <path id="Path_74" data-name="Path 74" d="M351.077,591.152a16.946,16.946,0,0,0,1.2,6.146l-4.95,2.614h-9.65s-.937-.333-1.091.117l-2.345,6a1.075,1.075,0,0,0,.7,1.427,1.143,1.143,0,0,0,1.485-.678l2.031-4.411H344.4V624.5h0v-3.76c-1.566-.6-2.114-1.125-2.74-1.125s-1.171.527-2.38,1.125v6.981c1.209.6,1.755,1.125,2.38,1.125a12.085,12.085,0,0,0,2.74-1.125v-.764h3.076l4.725,2.228a15.2,15.2,0,1,0,28.686,9.829,15.513,15.513,0,0,0-13.454-19.742v-4.993a1.1,1.1,0,0,0-.452-.922L349.951,601.3l3.529-1.923a14.773,14.773,0,0,0,12.752,7.3c9.573,0,17.163-9.136,14.683-19.477a15.132,15.132,0,0,0-29.837,3.955ZM379,633.278a13.446,13.446,0,0,1-26.87,0,11.851,11.851,0,0,1,.86-4.429l12.107,7.946h.08a14.529,14.529,0,0,1,.388-2.457h.08a14.535,14.535,0,0,1,.388,2.457h.08s.077-2.466.154-2.543c.08,0,.08-.074.157.086h.077c.08-.311.157-.459-1.626-.536v-.074a10,10,0,0,0,2.56-.376V620.517A12.926,12.926,0,0,1,379,633.278Zm-14.125-1.726-10.391-4.728a13.4,13.4,0,0,1,10.391-6.38Zm0-17.658v4.58a16.786,16.786,0,0,0-13.23,8.054l-4.684-2.133V602.051ZM379,590.8a13.18,13.18,0,0,1-13.435,12.909,13.587,13.587,0,0,1-11.324-6l11.873-5.93a1.168,1.168,0,0,0,.625-.974,1.38,1.38,0,0,0-.157-.527,1.191,1.191,0,0,0-1.562-.45l-11.873,5.93a13.373,13.373,0,0,1-1.017-4.953,13.446,13.446,0,0,1,26.87,0Z" transform="translate(-334.164 -575.63)" fill="#3f3fa7"/>
  </g>
</svg>
