<svg id="Group_26" data-name="Group 26" xmlns="http://www.w3.org/2000/svg" width="79.871" height="79.99" viewBox="0 0 79.871 79.99">
  <g id="Group_25" data-name="Group 25">
    <path id="Path_63" data-name="Path 63" d="M206.51,596.116l-17.585-13.189v-4.145l24.727-7.728-29.424-8.214v20.087l-17.585,13.189-20,7.5V642.83h79.871V603.617ZM188.925,573.86v-4.831l8.163,2.28Zm32.89,50.177h-14.1V601.586l14.1,5.287Zm-23.492-28.188H174.832l11.746-8.81Zm-32.89,5.737v22.452H151.34V606.873ZM151.34,628.737h4.7v9.4h-4.7Zm9.4,9.4v-9.4h4.7v9.4Zm18.792,0V614.641h4.7v23.492Zm9.4,0V614.641h4.7v23.492Zm9.4,0V609.942H174.832v28.191h-4.7V600.546H203.02v37.587Zm9.4-9.4h4.7v9.4h-4.7Zm9.4,9.4v-9.4h4.7v9.4Z" transform="translate(-146.641 -562.84)" fill="#3f3fa7"/>
  </g>
</svg>
