<svg xmlns="http://www.w3.org/2000/svg" width="66.602" height="66.201" viewBox="0 0 66.602 66.201">
  <g id="Group_65" data-name="Group 65" transform="translate(0.5 0.498)">
    <g id="Group_50" data-name="Group 50" transform="translate(0 7.408)">
      <g id="Group_49" data-name="Group 49">
        <path id="Path_85" data-name="Path 85" d="M529.539,618.84a10.248,10.248,0,0,0-7.328-4.89,7.047,7.047,0,0,1-.145-.962H510.551l-.456.5a8.151,8.151,0,0,0,3.057-1.892l4.264,1.22.6-2.093-3.412-.974a9.474,9.474,0,0,0,.892-2.016c.029-.1.046-.208,1.688-.315v-2.236l.962-1.115-.855-2-.107.75v-.838c-1.642-.2-1.694-.39-1.8-.558l-3.263-5.44a1.084,1.084,0,0,0-.8-.519,1.1,1.1,0,0,0-.9.311l-2.944,2.406h-.168V584.909l1.552-1.552h1.407l3.024,2.016a1.089,1.089,0,0,0,1.51-.3l2.2-3.307a1.085,1.085,0,0,0,0-1.205l-4.395-6.6a1.1,1.1,0,0,0-.907-.485h-3.775a3.113,3.113,0,0,0-.972.813l-1.875,4.126h-11.71l-1.875-4.126a3.091,3.091,0,0,0-.972-.813H486.79a1.087,1.087,0,0,0-.89.462l-5.409,7.7a1.088,1.088,0,0,0,.113,1.388l2.163,2.2a1.086,1.086,0,0,0,1.386.137l2.954-2h2.467l.447.454v11.931c-2.851,1.052-10.639,4.661-13.974,13.564a23.461,23.461,0,0,0-.806,13.369l-2.505-1.529V617.2s-1.4-2.364-2.513-2.919a3.244,3.244,0,0,0-3.42.309,4.066,4.066,0,0,0-1.474,2.61v7.614a2,2,0,0,0,.682.924l8.7,5.438c.174.107.374.166.577-.909h48.953c.168,1.075.336,1.035.485.96l4.353-2.175a1.1,1.1,0,0,0,.464-.445C529.658,628.409,532.26,623.609,529.539,618.84ZM499.9,620.4h-7.408v2.469H499.9v7.406h-1.764c0-3.5-4.353-4.936-4.353-4.936h-2.665a9.887,9.887,0,0,0-9.875-9.877h-1.1v2.469h1.671c4.2-.722,7.616,2.692,8.206,6.891v1.088c-.59.6.5,1.9.5,1.9h3.263a2.378,2.378,0,0,1,2.175,2.467H475.6l-7.8-6.056V617.2a.762.762,0,0,1,.311-.872,1.07,1.07,0,0,1,1.14-.1,5.151,5.151,0,0,1,1.018.974v.134a1.087,1.087,0,0,0,.575.96l5.52,2.944a1.225,1.225,0,0,0,1.279-.086.919.919,0,0,0,.334-1.1,17.183,17.183,0,0,1,0-13.136c.164-.382.351-.741.535-1.1l0,0c3.742-7.227,11.651-9.734,13.2-10.163a1,1,0,0,0,.781-.941V582.864a.937.937,0,0,0-.326-.7l-1.113-.987a1.169,1.169,0,0,0-.785-.29H486.9l-.556.151-2.6,1.541-.911-.811,4.676-5.82h2.341l1.875,3.666c.185.37.561.6.972,1.272h13.054c.414-.67.789-.9.974-1.272l1.875-3.666h2.152l3.292,4.938-1.062,1.594-2.142-1.428a1,1,0,0,0-.548-.166h-2.213a1.077,1.077,0,0,0-.764.317l-2.159,2.158a1.087,1.087,0,0,0-.317.768v14.041h-2.99l-2.944-2.406a1.087,1.087,0,0,0-1.7.208l-3.265,5.44c-.1.168-.155.363-1.447.558v.838l-.456-.747-.855,2,1.31,1.115v2.236c1.291.107,1.308.212,1.34.315a9.373,9.373,0,0,0,1.3,2.643l-3.9,1.461.766,2.039,4.735-1.776a8.777,8.777,0,0,0,.836.592,12.83,12.83,0,0,0,2.337,1.1v6.61Zm25.98,5.613-3.588,1.8h-8.143l-1.9-.987V624.06l2.513-2.089a.93.93,0,0,1,.777-.416.933.933,0,0,1,.833,1.35l-.714,1.428a1.086,1.086,0,0,0,.206,1.254l1.088,1.09a2.144,2.144,0,0,1,.769,1.128h4.405v-2.469h-3.954l-.214-.731.363-.724a3.11,3.11,0,0,0-5.369-3.116l-1.575,2.364c-.12.179-.183.389-1.6.6v3.263c1.413.118,1.432.233,1.47.344l.609,2.933h-4.548v-7.406h-2.469v7.406h-2.469V612.852a.919.919,0,0,0-.869-1.083,6.394,6.394,0,0,1-2.234-.626l1.428-.535-.764-2.037-2.677,1c-.706-.834-2.291-2.326-2.291-2.326v-1.384l2.814,1.216.85-2L494.96,603.5v-1.47l2.375-3.985,2.259,2.276a1.088,1.088,0,0,0,.773.321h6.476a1.075,1.075,0,0,0,.764-.319l2.264-2.278,2.373,3.985v1.726l-3.492,1.5.81,1.892,2.681-1.148v1.075a6.712,6.712,0,0,1-.89,1.772l-1.913-.546-.565,1.978.739.212a6.015,6.015,0,0,1-2.61.861,1.029,1.029,0,0,0-.632,1.751l2.041,2.041a1.089,1.089,0,0,0,.768.319H520.4a7.7,7.7,0,0,1,5.352,3.6A7.823,7.823,0,0,1,525.879,626.009Z" transform="translate(-465.329 -573.48)" fill="#3f3fa7" stroke="#3f3fa7" stroke-width="1"/>
      </g>
    </g>
    <g id="Group_52" data-name="Group 52" transform="translate(0.168)">
      <g id="Group_51" data-name="Group 51">
        <path id="Path_86" data-name="Path 86" d="M529.675,584.306c-1.959-5.445-8.317-13.749-17.814-14.306-6.457-.388-11.37,4.645-13.72,7.059l-.136.139c-.061-.063-.122-.128-.189-.2-2.314-2.4-7.169-7.416-13.583-7.028-9.5.559-15.857,8.861-17.816,14.306-2.616,7.278-.082,16.577,6.952,25.512l1.711-1.346c-6.562-8.332-8.972-16.871-6.614-23.431,1.762-4.9,7.45-12.374,15.895-12.867,5.449-.306,9.8,4.2,11.889,6.364.4.414.722.747.962.96a1.092,1.092,0,0,0,.462.244l.113.027a1.088,1.088,0,0,0,.985-.244c.231-.206.544-.525.93-.922,2.123-2.182,6.56-6.713,12.031-6.4,8.445.5,14.133,7.968,15.895,12.869,2.681,7.454-.806,17.4-9.329,26.6l1.6,1.478C528.98,603.311,532.638,592.539,529.675,584.306Z" transform="translate(-465.409 -569.952)" fill="#3f3fa7" stroke="#3f3fa7" stroke-width="1"/>
      </g>
    </g>
    <g id="Group_54" data-name="Group 54" transform="translate(27.162 17.285)">
      <g id="Group_53" data-name="Group 53">
        <rect id="Rectangle_28" data-name="Rectangle 28" width="2.469" height="2.469" fill="#3f3fa7" stroke="#3f3fa7" stroke-width="1"/>
      </g>
    </g>
    <g id="Group_56" data-name="Group 56" transform="translate(34.569 17.285)">
      <g id="Group_55" data-name="Group 55">
        <rect id="Rectangle_29" data-name="Rectangle 29" width="2.469" height="2.469" fill="#3f3fa7" stroke="#3f3fa7" stroke-width="1"/>
      </g>
    </g>
    <g id="Group_58" data-name="Group 58" transform="translate(29.631 22.224)">
      <g id="Group_57" data-name="Group 57">
        <rect id="Rectangle_30" data-name="Rectangle 30" width="4.938" height="2.469" fill="#3f3fa7" stroke="#3f3fa7" stroke-width="1"/>
      </g>
    </g>
    <g id="Group_60" data-name="Group 60" transform="translate(34.569 37.039)">
      <g id="Group_59" data-name="Group 59">
        <rect id="Rectangle_31" data-name="Rectangle 31" width="2.469" height="2.469" fill="#3f3fa7" stroke="#3f3fa7" stroke-width="1"/>
      </g>
    </g>
    <g id="Group_62" data-name="Group 62" transform="translate(41.977 37.039)">
      <g id="Group_61" data-name="Group 61">
        <rect id="Rectangle_32" data-name="Rectangle 32" width="2.469" height="2.469" fill="#3f3fa7" stroke="#3f3fa7" stroke-width="1"/>
      </g>
    </g>
    <g id="Group_64" data-name="Group 64" transform="translate(37.038 39.508)">
      <g id="Group_63" data-name="Group 63">
        <rect id="Rectangle_33" data-name="Rectangle 33" width="2.469" height="2.469" fill="#3f3fa7" stroke="#3f3fa7" stroke-width="1"/>
      </g>
    </g>
  </g>
</svg>
