<svg id="Group_34" data-name="Group 34" xmlns="http://www.w3.org/2000/svg" width="65.602" height="68.613" viewBox="0 0 65.602 68.613">
  <g id="Group_29" data-name="Group 29">
    <g id="Group_28" data-name="Group 28">
      <path id="Path_64" data-name="Path 64" d="M237.352,586.691l-17.846-16a1.977,1.977,0,0,0-2.635,0l-17.846,16a1.985,1.985,0,0,0,1.315,3.464h35.693A1.985,1.985,0,0,0,237.352,586.691Z" transform="translate(-198.36 -570.191)" fill="#3f3fa7"/>
    </g>
  </g>
  <g id="Group_31" data-name="Group 31" transform="translate(0 22.525)">
    <g id="Group_30" data-name="Group 30">
      <path id="Path_65" data-name="Path 65" d="M236.035,621.505h-1.777V580.536H203.533v40.969h-3.192a1.61,1.61,0,0,0-1.981,1.69c0,1.1,1.981,3.429,1.981,3.429h3.769a1.982,1.982,0,0,0,1.984-1.981V613.823h2.561v9.371c1.6,1.1,2.491,1.984,3.586,1.984a1.463,1.463,0,0,0,1.535-1.984v-1.69h7.682v1.69c.7,1.1,1.585,1.984,2.68,1.984s2.439-1.984,2.439-1.984v-9.371H231.7v9.371a3.984,3.984,0,0,0,.372,3.429h3.967c1.1-1.446,1.981-2.334,1.981-3.429S236.035,621.505,236.035,621.505Zm-24.82-12.8h-5.121v-5.121h5.121Zm10.242,10.242h-7.682v-5.121h7.682Zm0-10.242h-7.682v-5.121h7.682Zm-3.268-7.453a7.931,7.931,0,1,1,7.932-7.932A7.939,7.939,0,0,1,218.189,601.249ZM231.7,608.7h-5.121v-5.121H231.7Z" transform="translate(-198.36 -580.536)" fill="#3f3fa7"/>
    </g>
  </g>
  <g id="Group_33" data-name="Group 33" transform="translate(38.459 35.354)">
    <g id="Group_32" data-name="Group 32">
      <path id="Path_66" data-name="Path 66" d="M239.325,609.447h-6.776a3.828,3.828,0,0,1-3.53-2.328l-4.241-13.863a11.5,11.5,0,0,0-8.755-6.828v7.712a4.013,4.013,0,0,1,2.369,2.269l5.239,16.062a7.672,7.672,0,0,0,7.061,4.655h8.633a3.84,3.84,0,1,0,0-7.68Z" transform="translate(-216.023 -586.428)" fill="#3f3fa7"/>
    </g>
  </g>
</svg>
