<svg id="Group_38" data-name="Group 38" xmlns="http://www.w3.org/2000/svg" width="67.211" height="67.374" viewBox="0 0 67.211 67.374">
  <path id="Path_71" data-name="Path 71" d="M305.55,570.191a7.315,7.315,0,1,0,7.319,7.315A7.315,7.315,0,0,0,305.55,570.191Zm0,12.4a5.08,5.08,0,1,1,5.085-5.085A5.081,5.081,0,0,1,305.55,582.59Z" transform="translate(-267.029 -570.191)" fill="#3f3fa7"/>
  <path id="Path_72" data-name="Path 72" d="M326.126,600.862l-7.932-3.962,4.239-7.768,3.693,2.586a3.962,3.962,0,0,0,3.873.36l12.261-5.568a4.032,4.032,0,0,0,2.456-4.027,3.951,3.951,0,0,0-5.557-3.212l-10.371,4.707-.993-.694-.011-.013a.023.023,0,0,1-.024-.011l-5.117-3.576c-.03-.015-.061-.028-.093-.041a1.015,1.015,0,0,0-.206-.089,1.115,1.115,0,0,0-.223-.05c-.035,0-.063-.02-.1-.022a9.615,9.615,0,0,1-6-2.234c-.017-.013-.039-.017-.058-.03a1.068,1.068,0,0,0-.208-.113,1.192,1.192,0,0,0-.18-.074,2.175,2.175,0,0,0-.433-.022h-.069l-14.606,3.138a3.891,3.891,0,0,0-2.085,1.207l-10.15,11.266a3.937,3.937,0,1,0,5.856,5.262l9.224-10.241,3.052-.124-3.838,9.571v.009l-5.414,9.922-12.07,14.255a5.062,5.062,0,0,0,7.724,6.545l12.408-14.66.579-.843,3.379-6.183a2.269,2.269,0,0,1,3.006-.94l6.834,3.422.967,16.233a5.064,5.064,0,0,0,5.054,4.759,2.254,2.254,0,0,0,.3-.013,5.048,5.048,0,0,0,4.751-5.349l-1.127-19.153A5.065,5.065,0,0,0,326.126,600.862Zm3.192-14.937,10.954-4.97a1.7,1.7,0,1,1,1.394,3.1l-12.4,5.633a1.717,1.717,0,0,1-1.675-.156l-2.089-1.463,2.042-2.72.67.47A1.116,1.116,0,0,0,329.318,585.925Zm-27.62-.849a1.11,1.11,0,0,0-.78.368l-9.541,10.587a1.739,1.739,0,0,1-2.408.136,1.7,1.7,0,0,1-.559-1.179,1.673,1.673,0,0,1,.433-1.22l10.139-11.257a1.731,1.731,0,0,1,.925-.533l2.618-.559v3.626ZM309.641,587a1.118,1.118,0,1,0-.089-2.235l-4.478.18v-4.01l9.229-1.977a11.865,11.865,0,0,0,6.589,2.386l3.9,2.724-2.046,2.716-.793-.559c-.017-.011-.039-.013-.058-.024s-.028-.03-.045-.041a1.371,1.371,0,0,0-.152-.048,1.257,1.257,0,0,0-.212-.065,1.141,1.141,0,0,0-.21,0,1.192,1.192,0,0,0-.215.02,1.3,1.3,0,0,0-.193.074,1.091,1.091,0,0,0-.193.1,11,11,0,0,0-.275.26.336.336,0,0,0-.026.058c-.011.02-.03.028-.041.048l-5.2,9.541c-5.915.516-8.973-1.064-9.991-1.751l2.939-7.339Zm-5.984,24.369L291.249,626.02a2.831,2.831,0,0,1-4.981-1.589,2.8,2.8,0,0,1,.663-2.059l12.148-14.337a1.245,1.245,0,0,0,.128-.189l.707-1.294,5.225,2.234-1.157,2.122A3.3,3.3,0,0,1,303.657,611.374Zm3.708-6.662-1.151,2.1-5.228-2.234,3.758-6.886a.966.966,0,0,0,.035-.113.852.852,0,0,0,.052-.111l.381-.951a16.414,16.414,0,0,0,8.561,1.987,29.184,29.184,0,0,0,3.138-.189l5.189,2.594-4.222,4.218-4.549-2.278A4.486,4.486,0,0,0,307.365,604.711ZM327.3,626.073a2.8,2.8,0,0,1-1.944.943c-.03,0-.141,0-.173.009a2.827,2.827,0,0,1-2.822-2.657l-1.006-16.877a1.114,1.114,0,0,0-.616-.932l-.754-.379,4.224-4.22,1.116.557a2.811,2.811,0,0,1,1.55,2.356L328,624.031A2.8,2.8,0,0,1,327.3,626.073Z" transform="translate(-283.839 -562.236)" fill="#3f3fa7"/>
  <path id="Path_73" data-name="Path 73" d="M315.454,593.9a7.819,7.819,0,1,0,7.82,7.818A7.818,7.818,0,0,0,315.454,593.9Zm0,13.4a5.585,5.585,0,1,1,5.585-5.585A5.584,5.584,0,0,1,315.454,607.3Z" transform="translate(-256.063 -542.515)" fill="#3f3fa7"/>
</svg>
