<svg id="Group_20" data-name="Group 20" xmlns="http://www.w3.org/2000/svg" width="74.989" height="78.512" viewBox="0 0 74.989 78.512">
  <path id="Path_47" data-name="Path 47" d="M83.355,586.731a7.8,7.8,0,1,1,7.5-7.791A7.656,7.656,0,0,1,83.355,586.731Zm0-12.985a5.2,5.2,0,1,0,5,5.194A5.106,5.106,0,0,0,83.355,573.746Z" transform="translate(-45.86 -558.014)" fill="#3f3fa7"/>
  <path id="Path_48" data-name="Path 48" d="M85.19,598.621a1.231,1.231,0,0,1-.968-.476,1.334,1.334,0,0,1,.176-1.827,1.277,1.277,0,0,0,.289-.354L96.62,573.785a1.339,1.339,0,0,0,.134-1,1.287,1.287,0,0,0-.583-.79,1.223,1.223,0,0,0-1.707.476L84,591.918a1.229,1.229,0,0,1-1.7.5,1.326,1.326,0,0,1-.483-1.767l10.473-19.462a3.681,3.681,0,0,1,5.13-1.44,3.854,3.854,0,0,1,1.747,2.366,4,4,0,0,1-.374,2.955L86.861,597.248a3.925,3.925,0,0,1-.879,1.082A1.23,1.23,0,0,1,85.19,598.621Z" transform="translate(-38.749 -560.372)" fill="#3f3fa7"/>
  <path id="Path_49" data-name="Path 49" d="M69.452,612.62a3.66,3.66,0,0,1-2.613-1.1,4.005,4.005,0,0,1-.067-5.508l13.644-14.946a1.214,1.214,0,0,1,1.765-.049,1.334,1.334,0,0,1,.049,1.836l-13.655,14.96a1.339,1.339,0,0,0,.009,1.849,1.218,1.218,0,0,0,1.767-.025l13.78-15.1a1.216,1.216,0,0,1,1.767-.049,1.334,1.334,0,0,1,.047,1.836L72.154,611.438A3.7,3.7,0,0,1,69.452,612.62Z" transform="translate(-58.296 -534.108)" fill="#3f3fa7"/>
  <path id="Path_50" data-name="Path 50" d="M83.156,598.617a1.224,1.224,0,0,1-.794-.3,3.894,3.894,0,0,1-.861-1.057L69.55,575.054a3.983,3.983,0,0,1,1.382-5.308,3.676,3.676,0,0,1,5.121,1.429L86.534,590.65a1.326,1.326,0,0,1-.483,1.767,1.225,1.225,0,0,1-1.7-.5L73.88,572.457a1.229,1.229,0,0,0-1.7-.461,1.328,1.328,0,0,0-.456,1.774l11.949,22.21a1.307,1.307,0,0,0,.278.334,1.334,1.334,0,0,1,.169,1.829A1.227,1.227,0,0,1,83.156,598.617Z" transform="translate(-54.196 -560.373)" fill="#3f3fa7"/>
  <path id="Path_51" data-name="Path 51" d="M91.327,615.028a3.433,3.433,0,0,1-.619-.053,3.707,3.707,0,0,1-2.437-1.578,3.991,3.991,0,0,1-.645-2.9l2.021-12.607L85.4,595.922a1.32,1.32,0,0,1-.634-1.714,1.233,1.233,0,0,1,1.651-.661l5.134,2.372a1.311,1.311,0,0,1,.726,1.4l-2.181,13.6a1.33,1.33,0,0,0,.216.968,1.229,1.229,0,0,0,.812.525,1.255,1.255,0,0,0,1.438-1.066l2.5-15.58a1.307,1.307,0,0,0-.726-1.4l-7.7-3.556A1.318,1.318,0,0,1,86,589.1a1.232,1.232,0,0,1,1.651-.659l7.7,3.554a3.929,3.929,0,0,1,2.176,4.2l-2.5,15.583A3.782,3.782,0,0,1,91.327,615.028Z" transform="translate(-35.08 -536.968)" fill="#3f3fa7"/>
  <path id="Path_52" data-name="Path 52" d="M80.308,613.314a1.229,1.229,0,0,1-.85-.347l-7.322-7.075a1.336,1.336,0,0,1,.011-1.914l7.455-7.01L78.41,583.691a4.464,4.464,0,0,1,4.342-4.638h11.3a4.44,4.44,0,0,1,4.346,4.518q0,.067-.007.133l-1.153,11.568,6.578,2.875a1.318,1.318,0,0,1,.694,1.627l-2.909,8.639a1.27,1.27,0,0,1-.685.766,1.209,1.209,0,0,1-1.008-.011L88.927,604l-7.689,8.884a1.234,1.234,0,0,1-.875.427Zm-5.472-7.542,5.392,5.21,7.453-8.606a1.214,1.214,0,0,1,1.444-.316L99.7,607.034l2.07-6.149-6.351-2.777a1.3,1.3,0,0,1-.757-1.331L95.9,584.327a1.886,1.886,0,0,0-1.847-1.86h-11.3a1.886,1.886,0,0,0-1.847,1.921l1.244,13.8a1.33,1.33,0,0,1-.405,1.084Z" transform="translate(-50.908 -548.331)" fill="#3f3fa7"/>
  <path id="Path_53" data-name="Path 53" d="M118.674,569.959H68.681c-.69,1.6-1.248,1.015-1.248.3s.559-1.3,1.248,3.116h49.993c.692-4.415,1.251-3.834,1.251-3.116S119.366,571.555,118.674,569.959Z" transform="translate(-56.183 -559.717)" fill="#3f3fa7"/>
  <path id="Path_54" data-name="Path 54" d="M71.619,589.143H67.547a1.275,1.275,0,0,1-1.251-1.3v-21.3a1.277,1.277,0,0,1,1.251-1.3h4.07a1.276,1.276,0,0,1,1.251,1.3v21.3A1.273,1.273,0,0,1,71.619,589.143Zm-2.036-3.412h0V568.662h0Z" transform="translate(-57.577 -565.248)" fill="#3f3fa7"/>
  <path id="Path_55" data-name="Path 55" d="M68.665,589.143H64.592a1.273,1.273,0,0,1-1.248-1.3v-21.3a1.275,1.275,0,0,1,1.248-1.3h4.073a1.275,1.275,0,0,1,1.248,1.3v21.3A1.273,1.273,0,0,1,68.665,589.143Zm-2.036-3.412h0V568.662h0Z" transform="translate(-61.194 -565.248)" fill="#3f3fa7"/>
  <path id="Path_56" data-name="Path 56" d="M96.717,589.143H92.645a1.275,1.275,0,0,1-1.251-1.3v-21.3a1.277,1.277,0,0,1,1.251-1.3h4.07a1.276,1.276,0,0,1,1.251,1.3v21.3A1.273,1.273,0,0,1,96.717,589.143Zm1.248-3.412H94.681V568.662h3.285Z" transform="translate(-26.82 -565.248)" fill="#3f3fa7"/>
  <path id="Path_57" data-name="Path 57" d="M95.239,589.143H91.166a1.273,1.273,0,0,1-1.248-1.3v-21.3a1.277,1.277,0,0,1,1.251-1.3h4.07a1.277,1.277,0,0,1,1.251,1.3v21.3A1.275,1.275,0,0,1,95.239,589.143ZM93.2,585.731H89.918V568.662H93.2Z" transform="translate(-28.629 -565.248)" fill="#3f3fa7"/>
  <path id="Path_58" data-name="Path 58" d="M67.379,569.959h-3.75c-.69,1.6-1.251,1.015-1.251.3s.561-1.3,1.251,3.116h3.75c.69-4.415,1.248-3.834,1.248-3.116S68.068,571.555,67.379,569.959Z" transform="translate(-62.378 -559.717)" fill="#3f3fa7"/>
  <path id="Path_59" data-name="Path 59" d="M98.267,569.959h-3.75c-.69,1.6-1.251,1.015-1.251.3s.561-1.3,1.251,3.116h3.75c.69-4.415,1.248-3.834,1.248-3.116S98.957,571.555,98.267,569.959Z" transform="translate(-24.526 -559.717)" fill="#3f3fa7"/>
</svg>
