<svg id="Group_47" data-name="Group 47" xmlns="http://www.w3.org/2000/svg" width="56.156" height="58.316" viewBox="0 0 56.156 58.316">
  <g id="surface1">
    <path id="Path_76" data-name="Path 76" d="M432.159,572.3h-3.976a9.891,9.891,0,0,0-9.892,9.892V619.9a4.239,4.239,0,0,0,4.239,4.239H437.81a4.238,4.238,0,0,0,4.239-4.239V582.2A9.891,9.891,0,0,0,432.159,572.3Zm-5.418,1.429a8.436,8.436,0,0,1-7.214,7.216A8.209,8.209,0,0,1,426.74,573.733Zm-6.291,22.16a4.252,4.252,0,0,1-.037-4.335l2.23,3.172a1.118,1.118,0,0,0-.033,1.276v12.434a.932.932,0,0,0-.07,1.082l-2.588,3.683c-.3-.419-.481-.931.5-1.486Zm4.391,15.29h10.173c.388-.2.755-.286,1.084-.443l2.412,3.433c-.213.057-.437.09-.669,1.33H422.015c-.231-1.24-.456-1.273-.669-1.33l2.411-3.433C424.087,610.9,424.454,610.984,424.841,611.183Zm-.072-3.008V594.752a.849.849,0,0,1,.849-.849h9.1a.849.849,0,0,1,.849.849v13.422a.849.849,0,0,1-.849.849h-9.1A.849.849,0,0,1,424.77,608.174Zm11.147-14.106a2.536,2.536,0,0,0-.9-.165H424.841a2.536,2.536,0,0,0-.9.165l-2.6-3.7a10.448,10.448,0,0,1,17.171,0Zm3.973,25.111c.5,1.4-.646,2.544-2.048,2.8H422.015c-1.4-.259-2.544-1.4-3.725-2.8v-4.072c1.89.533,2.772.85,3.725.395h15.827c.953.456,1.835.138,2.048-.395Zm0-7.461a1.071,1.071,0,0,1,.015,1.486l-2.588-3.683c.154-.329.242-.694.413-1.082V596.006a8.1,8.1,0,0,0-.516-1.276l2.23-3.172a5.872,5.872,0,0,1,.446,4.335Zm0-21.226a12.756,12.756,0,0,0-21.6,0v-7.045a10.3,10.3,0,0,0,9.277-8.983h3.394a9.971,9.971,0,0,0,2.882,5.953,10.547,10.547,0,0,0,6.046,2.986Zm-6.426-16.714a8.211,8.211,0,0,1,6.86,7.113A8.518,8.518,0,0,1,433.463,573.779Z" transform="translate(-418.29 -567.984)" fill="#3f3fa7"/>
    <path id="Path_77" data-name="Path 77" d="M449.8,572.3H445.82a9.891,9.891,0,0,0-9.89,9.892V619.9a4.238,4.238,0,0,0,4.239,4.239h15.279a4.238,4.238,0,0,0,4.239-4.239V582.2A9.891,9.891,0,0,0,449.8,572.3Zm9.341,8.588a8.515,8.515,0,0,1-6.86-7.113A8.213,8.213,0,0,1,459.138,580.892Zm-13.582-7.159a8.436,8.436,0,0,1-7.216,7.216A8.213,8.213,0,0,1,445.556,573.733Zm-7.466,22.16a14.917,14.917,0,0,1,1.139-4.335l2.228,3.172a2.493,2.493,0,0,1-1.207,1.276v12.434a1.736,1.736,0,0,1,1.106,1.082l-2.588,3.683a5.824,5.824,0,0,1-.678-1.486Zm5.567,15.29H453.83c.388-.2.755-.286,1.084-.443l2.412,3.433c-.213.057-.437.09-.67,1.33H440.83c-.231-1.24-.457-1.273-.67-1.33l2.412-3.433C442.9,610.9,443.267,610.984,443.657,611.183Zm-1.247-3.008V594.752a.847.847,0,0,1,.847-.849h9.1a.849.849,0,0,1,.849.849v13.422a.849.849,0,0,1-.849.849h-9.1A.847.847,0,0,1,442.41,608.174Zm12.32-14.106a2.526,2.526,0,0,0-.9-.165H443.657a2.536,2.536,0,0,0-.9.165l-2.6-3.7a10.446,10.446,0,0,1,17.169,0Zm4.957,25.111a4.162,4.162,0,0,1-3.032,2.8H440.83a3.392,3.392,0,0,1-2.74-2.8v-4.072a2.778,2.778,0,0,0,2.74.395h15.825c.955.456,1.835.138,3.032-.395Zm0-7.461a12.839,12.839,0,0,0-.97,1.486l-2.586-3.683c.154-.329.242-.694,1.4-1.082V596.006a2.314,2.314,0,0,1-1.5-1.276l2.228-3.172a38.221,38.221,0,0,1,1.431,4.335Zm0-21.226a12.755,12.755,0,0,0-21.6,0v-7.045a10.3,10.3,0,0,0,9.277-8.983h3.394a9.968,9.968,0,0,0,2.88,5.953,10.552,10.552,0,0,0,6.046,2.986Z" transform="translate(-403.531 -567.984)" fill="#3f3fa7"/>
    <path id="Path_78" data-name="Path 78" d="M433.578,600.527h2.16v2.16h-2.16Z" transform="translate(-405.499 -544.371)" fill="#3f3fa7"/>
    <path id="Path_79" data-name="Path 79" d="M433.578,572.3h2.16V624.14h-2.16Z" transform="translate(-405.499 -567.984)" fill="#3f3fa7"/>
    <path id="Path_80" data-name="Path 80" d="M433.578,569.952h2.16v2.16h-2.16Z" transform="translate(-405.499 -569.952)" fill="#3f3fa7"/>
    <path id="Path_81" data-name="Path 81" d="M419.466,597h2.16v2.16h-2.16Z" transform="translate(-417.306 -547.322)" fill="#3f3fa7"/>
    <path id="Path_82" data-name="Path 82" d="M431.034,597h-2.16v2.16h2.16Z" transform="translate(-409.435 -547.322)" fill="#3f3fa7"/>
    <path id="Path_83" data-name="Path 83" d="M438.282,597h2.16v2.16h-2.16Z" transform="translate(-401.563 -547.322)" fill="#3f3fa7"/>
    <path id="Path_84" data-name="Path 84" d="M446.514,597h2.16v2.16h-2.16Z" transform="translate(-394.676 -547.322)" fill="#3f3fa7"/>
  </g>
</svg>
