<svg id="Group_23" data-name="Group 23" xmlns="http://www.w3.org/2000/svg" width="88.963" height="48.71" viewBox="0 0 88.963 48.71">
  <g id="Group_22" data-name="Group 22">
    <path id="Path_60" data-name="Path 60" d="M186.129,600.869a1.977,1.977,0,0,0-2.509,1.238,6.5,6.5,0,0,1-5.916,4.7c-2.668,0-4.427-1.358-5.374-4.155a2.336,2.336,0,0,0-4.216,0c-.947,2.8-2.706,4.155-5.374,4.155a6.5,6.5,0,0,1-5.916-4.7,1.847,1.847,0,0,0-.094-.223,2.025,2.025,0,0,0-.272-.5L145.523,586.98a5.647,5.647,0,0,0-1.958-1.564l-12.911-5.86a3.76,3.76,0,0,0-3.163.1l-17.183,9.1a3.189,3.189,0,0,0-1.616,3.187l.635,4.359a2.524,2.524,0,0,0,3.649,1.932l15.842-7.675,4.111,2.228s-10.662,8.087-11.237,9.38a6.069,6.069,0,0,1-11.811-.054,1.979,1.979,0,0,0-3.749,1.271,10.448,10.448,0,0,0,9.663,7.384,9.995,9.995,0,0,0,7.825-3.967,9.7,9.7,0,0,0,15.647,0,9.7,9.7,0,0,0,15.647,0,9.995,9.995,0,0,0,7.825,3.967,8.907,8.907,0,0,0,7.482-3.632,8.906,8.906,0,0,0,7.482,3.632,10.443,10.443,0,0,0,9.663-7.384A1.977,1.977,0,0,0,186.129,600.869ZM147.092,606.8a6.5,6.5,0,0,1-5.916-4.7,1.978,1.978,0,0,0-1.881-1.341l-.028,0-.026,0a1.98,1.98,0,0,0-1.883,1.341,6.5,6.5,0,0,1-5.914,4.7,6.311,6.311,0,0,1-5.489-3.674l11.176-8.587a2.445,2.445,0,0,0-.333-4.167l-6.291-3.407a3.687,3.687,0,0,0-3.212-.073l-14.327,6.938-.272-1.871,16.489-8.73,12.742,5.782a2.118,2.118,0,0,1,.446.354l10.3,13.57A6.346,6.346,0,0,1,147.092,606.8Z" transform="translate(-98.51 -574.914)" fill="#3f3fa7"/>
    <path id="Path_61" data-name="Path 61" d="M167.414,594.557a1.975,1.975,0,0,0-2.507,1.24c-.947,2.8-2.706,4.155-5.374,4.155a6.5,6.5,0,0,1-5.916-4.7,1.979,1.979,0,0,0-1.878-1.344h-.056a1.979,1.979,0,0,0-1.883,1.344,6.073,6.073,0,0,1-11.83,0,1.985,1.985,0,0,0-1.878-1.344h-.056a1.977,1.977,0,0,0-1.883,1.344,6.073,6.073,0,0,1-11.83,0,1.985,1.985,0,0,0-1.878-1.344h-.056a1.98,1.98,0,0,0-1.883,1.344,6.074,6.074,0,0,1-11.832,0,1.978,1.978,0,0,0-3.747,1.269,10.447,10.447,0,0,0,9.663,7.386,9.995,9.995,0,0,0,7.825-3.968,9.7,9.7,0,0,0,15.647,0,9.7,9.7,0,0,0,15.647,0,9.995,9.995,0,0,0,7.825,3.968c4.387,0,7.628-2.432,9.121-6.845A1.978,1.978,0,0,0,167.414,594.557Z" transform="translate(-102.821 -555.201)" fill="#3f3fa7"/>
    <path id="Path_62" data-name="Path 62" d="M136.189,599.949a11.685,11.685,0,0,0,1.641-.12,11.261,11.261,0,1,0-1.641.12Zm-1.043-18.513a7.433,7.433,0,0,1,1.067-.077,7.316,7.316,0,0,1,1.046,14.554,7.424,7.424,0,0,1-1.069.078,7.316,7.316,0,0,1-1.043-14.555Z" transform="translate(-73.09 -577.403)" fill="#3f3fa7"/>
  </g>
</svg>
