<svg id="Group_36" data-name="Group 36" xmlns="http://www.w3.org/2000/svg" width="80.677" height="57.392" viewBox="0 0 80.677 57.392">
  <path id="Path_67" data-name="Path 67" d="M318.64,601.757A4.866,4.866,0,0,0,313.9,598.5H301.848a9.721,9.721,0,0,0,1.217-2.414,4.393,4.393,0,0,0,.5-8.486,9.689,9.689,0,0,0-4.173-7.383,3.8,3.8,0,0,0-5.533-4.392,3.794,3.794,0,0,0-3.773,0,3.807,3.807,0,0,0-5.463,4.61,9.76,9.76,0,0,0-3.869,7.135,4.39,4.39,0,0,0,.5,8.535,9.786,9.786,0,0,0,1.213,2.395h-11.89a5.318,5.318,0,0,0-10.469,0h-2.685a5.318,5.318,0,0,0-10.469,0h-3.82a4.864,4.864,0,0,0-4.736,3.257,4.713,4.713,0,0,0,3.278,5.977l-1.392,10.282a11.845,11.845,0,0,0,6.586,12.266v1.236s1.213,1.2,1.874,1.2,1.2-.535.874-1.2v-1.068a6.976,6.976,0,0,1,3.128,1.021h3.72c.664-.682,1.2-1.217,1.2-1.878s-1.2-.869-1.2-.869h-4a10.128,10.128,0,0,1-2.843-.409v-5.086H260.6v8.29s.715,1.2,1.376,1.2a1.5,1.5,0,0,0,1.371-1.2v-.047h30.92c.661-.682,1.2-1.217,1.2-1.878s-1.2-.869-1.2-.869h-30.92V606.741h52.443l1.467,10.829a9.834,9.834,0,0,1-9.74,11.152h-7.827s-1.2.208-1.2.869,1.2,1.878,1.2,1.878h5.047a12.105,12.105,0,0,0,4.6-.794,11.922,11.922,0,0,0,7.42-12.661l-1.395-10.282A4.716,4.716,0,0,0,318.64,601.757Zm-30.927-23.74a1.454,1.454,0,0,1,1.3-1.35,1.425,1.425,0,0,1,1.058.334,1.5,1.5,0,0,0,1.951,0,1.425,1.425,0,0,1,1.85,0,1.5,1.5,0,0,0,1.951,0,1.425,1.425,0,0,1,1.058-.334,1.45,1.45,0,0,1,1.3,1.35,1.425,1.425,0,0,1-.217.841,1.244,1.244,0,0,0-.115.154c-.019.023-.037.047-.058.07a1.422,1.422,0,0,1-1.04.446,1.4,1.4,0,0,1-.925-.341,1.5,1.5,0,0,0-1.951,0,1.426,1.426,0,0,1-1.85,0,1.5,1.5,0,0,0-1.951,0,1.4,1.4,0,0,1-.925.341,1.422,1.422,0,0,1-1.04-.446A1.439,1.439,0,0,1,287.713,578.017Zm-3.486,16.614a1.2,1.2,0,0,0-1.306-.914c-.072.007-.138.012-.2.012a2,2,0,0,1-.021-3.981c.979.068,1.4-.783,1.325-1.61a7.421,7.421,0,0,1,3.014-5.948,3.839,3.839,0,0,0,2.105.633,3.8,3.8,0,0,0,1.9-.507,3.816,3.816,0,0,0,3.8,0,3.8,3.8,0,0,0,1.9.507,3.845,3.845,0,0,0,2.294-.764,7.367,7.367,0,0,1,3.2,6.079c-.049.722.32,1.61,1.2,1.61a2,2,0,0,1,0,3.981c-.044,0-.089,0-.138-.007a1.2,1.2,0,0,0-1.262.918,7.417,7.417,0,0,1-2.332,3.857H286.559A7.415,7.415,0,0,1,284.227,594.631Zm-18.091,1.853a2.962,2.962,0,0,1,2.8,2.014h-5.6A2.967,2.967,0,0,1,266.137,596.484ZM260.6,598.5v5.5h-10.99v-5.5Zm-7.705-2.014a2.966,2.966,0,0,1,2.8,2.014h-5.6A2.967,2.967,0,0,1,252.9,596.484Zm-11.705,5.839c0-1.285,1.044-2.329,2.329-3.825h3.343v5.5h-3.343C242.236,604.654,241.191,603.608,241.191,602.323Zm3.685,22.495a9.546,9.546,0,0,1-2.271-7.561l1.425-10.516h2.834v19.8A9.531,9.531,0,0,1,244.876,624.817Zm4.736-4.339v-8.243H260.6v8.243Zm10.99-10.99h-10.99v-2.748H260.6Zm54.683-5.5H263.349v-5.5h51.936c1.285,1.5,2.332,2.54,2.332,3.825S316.57,604.654,315.285,603.993Z" transform="translate(-238.177 -575.319)" fill="#3f3fa7"/>
  <path id="Path_68" data-name="Path 68" d="M262.774,582.037a1.781,1.781,0,1,1-1.78-1.783A1.782,1.782,0,0,1,262.774,582.037Z" transform="translate(-210.067 -568.725)" fill="#3f3fa7"/>
  <path id="Path_69" data-name="Path 69" d="M266.339,582.037a1.781,1.781,0,1,1-1.783-1.783A1.782,1.782,0,0,1,266.339,582.037Z" transform="translate(-205.303 -568.725)" fill="#3f3fa7"/>
  <path id="Path_70" data-name="Path 70" d="M268.318,581.712h-7.259a1.6,1.6,0,0,0-1.589,1.773,5.251,5.251,0,0,0,10.439,0,1.6,1.6,0,0,0-1.591-1.773Zm-3.628,4.4a2.851,2.851,0,0,1-2.593-1.656h5.187A2.851,2.851,0,0,1,264.69,586.116Z" transform="translate(-209.733 -566.776)" fill="#3f3fa7"/>
</svg>
